<svg width="26" height="18" viewBox="0 0 26 18" fill="none" xmlns="http://www.w3.org/2000/svg">
<path d="M16.5758 17.612C15.4558 17.612 14.7931 17.5093 14.5878 17.304C14.4944 17.2107 14.2238 17.0333 13.7758 16.772C13.3464 16.5107 12.7211 16.1747 11.8998 15.764C11.7131 15.6707 11.3771 15.4933 10.8918 15.232C10.4064 14.952 9.83711 14.6533 9.18378 14.336C9.09044 14.28 8.93178 14.196 8.70778 14.084C8.50244 13.972 8.28778 13.86 8.06378 13.748C7.83978 13.6173 7.67178 13.524 7.55978 13.468L7.05578 13.216C7.01844 13.1973 6.96244 13.1693 6.88778 13.132C6.81311 13.0947 6.72911 13.048 6.63578 12.992L5.85178 12.6C5.72111 12.5253 5.57178 12.4413 5.40378 12.348C5.25444 12.2547 5.09578 12.1707 4.92778 12.096L1.23178 10.136C1.08244 9.70668 0.951777 9.31468 0.839777 8.96001C0.727777 8.60535 0.653111 8.28801 0.615778 8.00801C0.578444 7.72801 0.503777 7.38268 0.391777 6.97201C0.279777 6.56135 0.149111 6.08535 -0.000222579 5.54401C0.223777 5.05868 0.429111 4.63868 0.615778 4.28401C0.802444 3.91068 0.970444 3.62135 1.11978 3.41601C1.23178 3.26668 1.35311 3.09868 1.48378 2.91201C1.61444 2.70668 1.79178 2.42668 2.01578 2.07201C2.10911 1.94135 2.19311 1.80135 2.26778 1.65201C2.36111 1.48401 2.44511 1.32535 2.51978 1.17601C2.66911 1.13868 2.86511 1.08268 3.10778 1.00801C3.35044 0.933346 3.53711 0.88668 3.66778 0.868013C3.98511 0.812013 4.34911 0.718679 4.75978 0.588012C5.17044 0.457346 5.49711 0.354679 5.73978 0.280012C6.00111 0.186679 6.32778 0.0933459 6.71978 1.26362e-05L8.76378 1.26001C9.21178 1.54001 9.64111 1.78268 10.0518 1.98801C10.4624 2.19335 10.8544 2.41735 11.2278 2.66001L12.0118 3.16401C12.5718 3.51868 13.0011 3.79868 13.2998 4.00401C13.6171 4.20935 13.8131 4.34935 13.8878 4.42401C13.9624 4.49868 14.1118 4.60135 14.3358 4.73201C14.5598 4.86268 14.8584 5.04001 15.2318 5.26401C15.7918 5.60001 16.3518 5.93601 16.9118 6.27201C17.4904 6.58935 18.0598 6.91601 18.6198 7.25201C18.9744 7.47601 19.2638 7.67201 19.4878 7.84001C19.7118 8.02668 19.9824 8.29735 20.2998 8.65201C20.6171 8.98801 20.8878 9.34268 21.1118 9.71601L22.6518 12.292C23.4544 13.636 24.0611 14.6627 24.4718 15.372C24.9011 16.0813 25.1251 16.4827 25.1438 16.576C25.1998 16.744 25.2278 16.8747 25.2278 16.968C25.2278 17.1733 25.1344 17.3133 24.9478 17.388C24.7798 17.4627 24.5651 17.5 24.3038 17.5C23.9864 17.5 23.6598 17.5093 23.3238 17.528C22.9878 17.528 22.6611 17.528 22.3438 17.528L17.3598 17.584C17.2291 17.584 17.0984 17.5933 16.9678 17.612C16.8371 17.612 16.7064 17.612 16.5758 17.612ZM2.07178 9.12801C2.10911 9.12801 2.14644 9.12801 2.18378 9.12801C2.22111 9.10935 2.25844 9.10001 2.29578 9.10001L2.85578 9.01601C3.07978 9.01601 3.43444 8.89468 3.91978 8.65201C4.14378 8.54001 4.43311 8.41868 4.78778 8.28801C5.14244 8.13868 5.37578 8.06401 5.48778 8.06401C5.52511 8.02668 5.61844 7.87735 5.76778 7.61601C5.93578 7.33601 6.02911 7.15868 6.04778 7.08401L6.18778 6.72001C6.26244 6.51468 6.34644 6.34668 6.43978 6.21601C6.55178 6.06668 6.64511 5.94535 6.71978 5.85201C6.88778 5.64668 7.02778 5.45068 7.13978 5.26401C7.19578 5.17068 7.26111 5.06801 7.33578 4.95601C7.42911 4.82535 7.54111 4.68535 7.67178 4.53601C7.65311 4.46135 7.60644 4.32135 7.53178 4.11601C7.45711 3.91068 7.34511 3.64001 7.19578 3.30401C6.91578 2.63201 6.73844 2.18401 6.66378 1.96001L6.38378 1.06401L5.62778 1.34401C5.44111 1.41868 5.25444 1.49335 5.06778 1.56801C4.88111 1.62401 4.74111 1.66135 4.64778 1.68001L3.24778 2.07201C3.21044 2.12801 3.11711 2.26801 2.96778 2.49201C2.83711 2.69735 2.75311 2.82801 2.71578 2.88401L1.90378 4.17201C1.77311 4.39601 1.62378 4.64801 1.45578 4.92801C1.28778 5.18935 1.11978 5.45068 0.951777 5.71201L1.34378 7.02801C1.41844 7.27068 1.48378 7.45735 1.53978 7.58801C1.59578 7.70001 1.64244 7.82135 1.67978 7.95201L2.07178 9.12801ZM18.9838 10.416V8.51201L17.0798 7.28001C16.9491 7.18668 16.7904 7.09335 16.6038 7.00001C16.4171 6.88801 16.2211 6.78535 16.0158 6.69201L15.4558 6.41201C15.3811 6.37468 15.3064 6.33735 15.2318 6.30001C15.1571 6.26268 15.1011 6.23468 15.0638 6.21601L12.9078 4.84401C12.7771 4.75068 12.6558 4.67601 12.5438 4.62001C12.4504 4.56401 12.3758 4.51735 12.3198 4.48001L7.50378 1.45601L7.75578 2.10001C7.81178 2.24935 7.86778 2.40801 7.92378 2.57601C7.97978 2.72535 8.00778 2.83735 8.00778 2.91201C8.00778 2.98668 8.03578 3.13601 8.09178 3.36001C8.16644 3.58401 8.25044 3.80801 8.34378 4.03201C8.43711 4.23735 8.50244 4.39601 8.53978 4.50801C8.63311 4.63868 8.85711 4.80668 9.21178 5.01201C9.41711 5.10535 9.58511 5.19868 9.71578 5.29201C9.84644 5.38535 9.94911 5.47868 10.0238 5.57201C10.1918 5.74001 10.3878 5.89868 10.6118 6.04801L10.9478 6.27201C11.0598 6.34668 11.1718 6.41201 11.2838 6.46801C11.4144 6.52401 11.5171 6.57068 11.5918 6.60801C11.9278 6.72001 12.1424 6.80401 12.2358 6.86001C12.3478 6.91601 12.5438 7.02801 12.8238 7.19601C12.9358 7.27068 13.0571 7.34535 13.1878 7.42001C13.3184 7.47601 13.4584 7.53201 13.6078 7.58801C13.8504 7.66268 14.0744 7.76535 14.2798 7.89601C14.5038 8.02668 14.8584 8.25068 15.3438 8.56801L17.1358 9.40801C17.3224 9.48268 17.4904 9.56668 17.6398 9.66001C17.7891 9.73468 17.9104 9.80001 18.0038 9.85601L18.9838 10.416ZM3.75178 6.88801C3.47178 6.88801 3.23844 6.75735 3.05178 6.49601C2.88378 6.21601 2.79978 5.89868 2.79978 5.54401C2.79978 5.13335 2.91178 4.74135 3.13578 4.36801C3.35978 3.97601 3.62111 3.65868 3.91978 3.41601C4.23711 3.15468 4.53578 3.02401 4.81578 3.02401C5.15178 3.02401 5.40378 3.13601 5.57178 3.36001C5.73978 3.58401 5.82378 3.88268 5.82378 4.25601C5.82378 4.42401 5.75844 4.65735 5.62778 4.95601C5.49711 5.23601 5.32911 5.52535 5.12378 5.82401C4.91844 6.12268 4.69444 6.37468 4.45178 6.58001C4.20911 6.78535 3.97578 6.88801 3.75178 6.88801ZM17.0238 14.392C17.3971 14.0933 17.6771 13.8227 17.8638 13.58C18.0691 13.3373 18.1998 13.1227 18.2558 12.936C18.3118 12.7493 18.3584 12.572 18.3958 12.404C18.4518 12.236 18.5171 12.0867 18.5918 11.956L18.7598 11.592C18.4611 11.4053 18.1718 11.228 17.8918 11.06C17.6304 10.8733 17.3691 10.6867 17.1078 10.5C16.9024 10.4253 16.7344 10.36 16.6038 10.304C16.4918 10.248 16.3331 10.1547 16.1278 10.024L15.5678 9.63201C14.9144 9.16535 14.4758 8.93201 14.2518 8.93201C14.0278 8.93201 13.7198 8.79201 13.3278 8.51201L12.0398 7.56001C11.9278 7.46668 11.7691 7.38268 11.5638 7.30801C11.3584 7.21468 11.0131 7.08401 10.5278 6.91601C10.1918 6.78535 9.93044 6.64535 9.74378 6.49601C9.63178 6.40268 9.51978 6.32801 9.40778 6.27201C9.31444 6.21601 9.22111 6.16001 9.12778 6.10401L8.73578 5.88001C8.66111 5.82401 8.57711 5.77735 8.48378 5.74001C8.40911 5.70268 8.32511 5.65601 8.23178 5.60001C7.87711 6.01068 7.69978 6.28135 7.69978 6.41201C7.69978 6.56135 7.59711 6.79468 7.39178 7.11201L6.60778 8.28801L6.97178 8.54001C7.17711 8.68935 7.39178 8.81068 7.61578 8.90401L7.97978 9.07201C8.39044 9.27735 8.73578 9.48268 9.01578 9.68801C9.16511 9.78135 9.28644 9.86535 9.37978 9.94001C9.47311 10.0147 9.55711 10.0707 9.63178 10.108L13.2158 12.096C13.3464 12.1707 13.5144 12.2733 13.7198 12.404C13.9251 12.5347 14.1398 12.6747 14.3638 12.824L16.0438 13.888C16.1184 13.9253 16.1931 13.972 16.2678 14.028C16.3611 14.0653 16.4451 14.1027 16.5198 14.14L17.0238 14.392ZM14.9518 16.24L16.2958 15.12C16.2398 15.0827 16.1838 15.0547 16.1278 15.036C16.0718 14.9987 16.0251 14.9613 15.9878 14.924C15.9318 14.8867 15.8758 14.8493 15.8198 14.812C15.7638 14.7747 15.6984 14.7373 15.6238 14.7L15.3438 14.504C15.3064 14.4667 15.1758 14.3827 14.9518 14.252L13.2718 13.244C13.2158 13.2067 13.1131 13.1507 12.9638 13.076C12.8331 12.9827 12.6558 12.8987 12.4318 12.824C12.1331 12.712 11.8718 12.5907 11.6478 12.46C11.4424 12.3293 11.2371 12.2173 11.0318 12.124C10.9198 11.9933 10.8171 11.8907 10.7238 11.816C10.6491 11.7413 10.5838 11.6667 10.5278 11.592C10.4344 11.4987 10.2291 11.3867 9.91178 11.256L9.54778 11.116C9.13711 10.9667 8.81044 10.7707 8.56778 10.528C8.28778 10.248 8.06378 10.0987 7.89578 10.08C7.67178 10.0613 7.42911 9.95868 7.16778 9.77201C6.86911 9.56668 6.60778 9.40801 6.38378 9.29601C6.15978 9.16535 5.93578 9.05335 5.71178 8.96001C5.63711 8.99735 5.45978 9.05335 5.17978 9.12801C4.91844 9.20268 4.74111 9.24935 4.64778 9.26801C4.46111 9.28668 4.28378 9.33335 4.11578 9.40801C3.96644 9.48268 3.78911 9.56668 3.58378 9.66001L3.07978 9.91201C3.56511 10.2107 4.02244 10.5 4.45178 10.78C4.89978 11.06 5.36644 11.312 5.85178 11.536L6.71978 11.928C6.81311 11.9653 6.91578 12.012 7.02778 12.068C7.13978 12.124 7.25178 12.1707 7.36378 12.208C7.45711 12.2453 7.59711 12.3107 7.78378 12.404C7.98911 12.4973 8.23178 12.6187 8.51178 12.768L10.1918 13.664C10.4718 13.8133 10.7518 13.972 11.0318 14.14C11.3118 14.308 11.5918 14.4667 11.8718 14.616C12.0584 14.7093 12.2358 14.812 12.4038 14.924C12.5718 15.036 12.7491 15.1387 12.9358 15.232C13.1411 15.344 13.4304 15.5027 13.8038 15.708C14.1958 15.8947 14.5784 16.072 14.9518 16.24ZM16.1278 16.604C16.2024 16.604 16.3518 16.604 16.5758 16.604C16.8184 16.5853 17.0891 16.576 17.3878 16.576C17.7238 16.576 18.0691 16.576 18.4238 16.576C18.7971 16.5573 19.1984 16.548 19.6278 16.548C20.1131 16.548 20.5891 16.5573 21.0558 16.576C21.5224 16.576 21.9891 16.576 22.4558 16.576C22.6798 16.576 22.8944 16.4173 23.0998 16.1C23.3051 15.764 23.4078 15.4933 23.4078 15.288C23.4078 15.1947 23.3238 15.008 23.1558 14.728C23.0064 14.448 22.8291 14.168 22.6238 13.888L22.2318 13.328C22.0824 13.104 21.8958 12.824 21.6718 12.488C21.4478 12.152 21.2611 11.8347 21.1118 11.536L20.8878 11.088C20.8318 10.976 20.7478 10.836 20.6358 10.668C20.5238 10.4813 20.4118 10.3133 20.2998 10.164L19.8798 9.57601L19.8238 9.91201C19.8051 10.024 19.7958 10.136 19.7958 10.248C19.7958 10.36 19.7958 10.4813 19.7958 10.612V10.78C19.8144 10.8173 19.8238 10.864 19.8238 10.92C19.8238 11.0133 19.9171 11.2187 20.1038 11.536C20.1971 11.6853 20.2904 11.844 20.3838 12.012C20.4771 12.18 20.5891 12.3573 20.7198 12.544C20.5331 12.3947 20.3371 12.264 20.1318 12.152C19.9451 12.04 19.7958 11.984 19.6838 11.984C19.5158 11.984 19.4318 12.096 19.4318 12.32C19.4318 12.5067 19.5998 12.796 19.9358 13.188C20.2718 13.5613 20.6264 13.9253 20.9998 14.28C20.9064 14.2427 20.8038 14.2147 20.6918 14.196C20.5984 14.1773 20.5051 14.1587 20.4118 14.14L19.7958 13.888C19.7211 13.8507 19.5998 13.8227 19.4318 13.804C19.2638 13.7853 19.1238 13.776 19.0118 13.776C18.7318 13.776 18.4984 13.8787 18.3118 14.084C18.1251 14.2893 18.0318 14.4667 18.0318 14.616C18.0318 14.784 18.0971 14.9427 18.2278 15.092C18.3771 15.2227 18.5731 15.3813 18.8158 15.568C18.6104 15.568 18.4424 15.5773 18.3118 15.596C18.1998 15.596 18.1064 15.596 18.0318 15.596C17.9384 15.596 17.8358 15.6053 17.7238 15.624C17.6304 15.624 17.5278 15.624 17.4158 15.624C17.0611 15.624 16.7531 15.7267 16.4918 15.932C16.2304 16.1373 16.0158 16.352 15.8478 16.576L16.1278 16.604Z" fill="#008000"/>
</svg>
