<svg width="90" height="15" viewBox="0 0 90 15" fill="none" xmlns="http://www.w3.org/2000/svg">
<path d="M20 8L13.7397 13L12.1747 11.75L16.8699 8L12.1747 4.25L13.7397 3L20 8ZM6.26027 13L7.82534 11.75L3.13013 8L7.82534 4.25L6.26027 3L0 8L6.26027 13Z" fill="#44944A"/>
<path d="M21.3926 7.52344C21.3926 6.63281 21.5215 5.84375 21.7793 5.15625C22.0371 4.46484 22.4434 3.91992 22.998 3.52148C23.5566 3.11914 24.2656 2.91797 25.125 2.91797C25.4297 2.91797 25.7598 2.9375 26.1152 2.97656C26.4707 3.01172 26.8184 3.06836 27.1582 3.14648C27.3691 3.27148 27.5527 3.40234 27.709 3.53906C27.8691 3.67188 28.0215 3.83398 28.166 4.02539C28.166 4.30273 28.1289 4.66992 28.0547 5.12695C27.9805 5.58398 27.8867 6.00977 27.7734 6.4043C27.6641 6.79883 27.5586 7.05469 27.457 7.17188C27.3555 7.22266 27.2695 7.25781 27.1992 7.27734C27.1289 7.29297 27.0195 7.30078 26.8711 7.30078C26.6875 7.30078 26.5156 7.28711 26.3555 7.25977C26.1953 7.23242 26.0742 7.19531 25.9922 7.14844L25.7871 5.17383C25.5098 5.0957 25.0664 5.05664 24.457 5.05664C24.3242 5.05664 24.2266 5.05859 24.1641 5.0625C23.9961 5.60156 23.9023 6.32617 23.8828 7.23633V7.46484C23.8828 8.04688 23.9199 8.56055 23.9941 9.00586C24.0449 9.29883 24.0879 9.52344 24.123 9.67969C24.1621 9.83594 24.209 9.95703 24.2637 10.043C24.3223 10.125 24.3945 10.166 24.4805 10.166C24.7852 10.166 25.0566 10.0605 25.2949 9.84961C25.5371 9.63867 25.7441 9.36914 25.916 9.04102L25.7578 8.20312C26.2695 8.03125 26.7754 7.94336 27.2754 7.93945C27.5176 7.93945 27.7285 7.9668 27.9082 8.02148C28.0879 8.07617 28.209 8.18359 28.2715 8.34375C28.1973 8.92188 28.0781 9.63086 27.9141 10.4707C27.75 11.3105 27.627 11.8203 27.5449 12C27.2949 12.0781 27.0527 12.1172 26.8184 12.1172C26.6973 12.1172 26.5684 12.1074 26.4316 12.0879C26.2988 12.0684 26.1816 12.0391 26.0801 12C26.0801 11.8711 26.0684 11.5645 26.0449 11.0801L26.0273 10.6465L25.8691 10.5996C25.5996 11.0527 25.2969 11.4199 24.9609 11.7012C24.625 11.9785 24.2598 12.1172 23.8652 12.1172C23.3574 12.1172 22.918 11.9297 22.5469 11.5547C22.1758 11.1797 21.8906 10.6465 21.6914 9.95508C21.4922 9.25977 21.3926 8.44922 21.3926 7.52344ZM29.5312 7.34766C29.5312 6.44531 29.5469 5.64453 29.5781 4.94531L28.7871 4.82227C28.7363 4.67773 28.6973 4.51758 28.6699 4.3418C28.6426 4.16602 28.6289 3.99609 28.6289 3.83203C28.6289 3.70703 28.6387 3.57031 28.6582 3.42188C29.1699 3.24219 29.8457 3.11328 30.6855 3.03516C31.5254 2.95703 32.3457 2.91797 33.1465 2.91797C33.7441 2.91797 34.2578 2.96484 34.6875 3.05859C35.1172 3.15234 35.4766 3.36523 35.7656 3.69727C36.0586 4.02539 36.2051 4.51758 36.2051 5.17383C36.2051 5.44336 36.1621 5.74219 36.0762 6.07031C35.9902 6.39453 35.8711 6.71875 35.7188 7.04297C35.5781 7.33984 35.418 7.62305 35.2383 7.89258C35.0625 8.1582 34.8789 8.38672 34.6875 8.57812C34.8008 8.875 34.918 9.14648 35.0391 9.39258C35.1602 9.63477 35.3457 9.92969 35.5957 10.2773L36.416 9.93164C36.7207 10.1934 36.8984 10.541 36.9492 10.9746C36.9492 10.998 36.8555 11.1094 36.668 11.3086C36.4844 11.5078 36.2441 11.6934 35.9473 11.8652C35.6504 12.0332 35.3164 12.1172 34.9453 12.1172C34.6562 12.1172 34.3965 12.0664 34.166 11.9648C33.9395 11.8633 33.752 11.6855 33.6035 11.4316C33.459 11.1816 33.3438 10.8848 33.2578 10.541C33.1719 10.1973 33.1113 9.85742 33.0762 9.52148L31.7402 9.46289C31.7754 9.76758 31.8203 10.082 31.875 10.4062C31.9297 10.7266 31.9629 10.9199 31.9746 10.9863C32.041 11.373 32.084 11.6367 32.1035 11.7773C31.9238 11.8867 31.7051 11.9707 31.4473 12.0293C31.1934 12.0879 30.9336 12.1172 30.668 12.1172C30.3633 12.1172 30.0684 12.0762 29.7832 11.9941C29.6973 11.6504 29.6328 11.0488 29.5898 10.1895C29.5508 9.32617 29.5312 8.37891 29.5312 7.34766ZM33.1758 8.05078C33.3125 7.66016 33.4199 7.23633 33.498 6.7793C33.5801 6.31836 33.6543 5.76953 33.7207 5.13281C33.6074 5.08984 33.459 5.05664 33.2754 5.0332C33.0918 5.00977 32.9141 4.99805 32.7422 4.99805C32.3516 4.99805 32.0586 5.00781 31.8633 5.02734C31.8203 6.49609 31.7734 7.53711 31.7227 8.15039L33.1758 8.05078ZM36.9961 10.5645C36.9961 10.2168 37.0684 9.87891 37.2129 9.55078C37.2793 9.55078 37.3828 9.56445 37.5234 9.5918C37.668 9.61523 37.8184 9.64648 37.9746 9.68555C37.9512 8.63086 37.9395 7.76562 37.9395 7.08984C37.9395 6.25 37.9551 5.5332 37.9863 4.93945L37.084 4.81641C37.0332 4.67188 36.9941 4.51367 36.9668 4.3418C36.9395 4.16602 36.9258 3.99609 36.9258 3.83203C36.9258 3.70703 36.9355 3.57031 36.9551 3.42188C37.4199 3.24609 38.0312 3.11914 38.7891 3.04102C39.5508 2.95898 40.3184 2.91797 41.0918 2.91797C41.8223 2.91797 42.3516 2.95117 42.6797 3.01758C42.8906 3.14648 43.0742 3.27734 43.2305 3.41016C43.3906 3.53906 43.543 3.69922 43.6875 3.89062C43.6875 4.16406 43.6602 4.46094 43.6055 4.78125C43.5547 5.09766 43.4824 5.38867 43.3887 5.6543C43.2988 5.91992 43.2012 6.11133 43.0957 6.22852C43.0059 6.27148 42.9062 6.30469 42.7969 6.32812C42.6875 6.34766 42.5527 6.35742 42.3926 6.35742C42.252 6.35742 42.1309 6.3457 42.0293 6.32227C41.9316 6.29492 41.8379 6.25586 41.748 6.20508L41.5488 4.92773C41.3027 4.88867 41.0098 4.86914 40.6699 4.86914C40.5762 4.86914 40.4824 4.875 40.3887 4.88672C40.373 5.45312 40.293 6.22461 40.1484 7.20117C41.0156 7.05664 41.7559 6.95117 42.3691 6.88477C42.5254 7.12305 42.6035 7.41406 42.6035 7.75781C42.6035 7.98438 42.5723 8.20312 42.5098 8.41406C42.4473 8.625 42.3789 8.77148 42.3047 8.85352C42.1406 8.88086 41.9453 8.89453 41.7188 8.89453C41.4258 8.89453 41.1211 8.86914 40.8047 8.81836C40.4922 8.76758 40.1992 8.69336 39.9258 8.5957L39.8496 9.09375C39.8027 9.37109 39.7617 9.64453 39.7266 9.91406L43.4355 9.69727C43.4941 9.75195 43.543 9.86133 43.582 10.0254C43.625 10.1895 43.6465 10.3691 43.6465 10.5645C43.6465 10.877 43.584 11.1504 43.459 11.3848C43.334 11.6191 43.168 11.8008 42.9609 11.9297C42.7578 12.0547 42.5391 12.1172 42.3047 12.1172C42.0703 12.1172 41.75 12.0664 41.3438 11.9648C40.9414 11.8594 40.5488 11.7285 40.166 11.5723C39.7871 11.416 39.5078 11.2656 39.3281 11.1211C39.1484 11.4336 38.9512 11.6719 38.7363 11.8359C38.5254 12 38.252 12.0938 37.916 12.1172C37.748 12.0898 37.5938 12.0039 37.4531 11.8594C37.3125 11.7148 37.2012 11.5293 37.1191 11.3027C37.0371 11.0762 36.9961 10.8301 36.9961 10.5645ZM44.0391 10.5645C44.0391 10.2168 44.1113 9.87891 44.2559 9.55078C44.3223 9.55078 44.4258 9.56445 44.5664 9.5918C44.7109 9.61523 44.8613 9.64648 45.0176 9.68555C44.9941 8.63086 44.9824 7.76562 44.9824 7.08984C44.9824 6.25 44.998 5.5332 45.0293 4.93945L44.127 4.81641C44.0762 4.67188 44.0371 4.51367 44.0098 4.3418C43.9824 4.16602 43.9688 3.99609 43.9688 3.83203C43.9688 3.70703 43.9785 3.57031 43.998 3.42188C44.4629 3.24609 45.0742 3.11914 45.832 3.04102C46.5938 2.95898 47.3613 2.91797 48.1348 2.91797C48.8652 2.91797 49.3945 2.95117 49.7227 3.01758C49.9336 3.14648 50.1172 3.27734 50.2734 3.41016C50.4336 3.53906 50.5859 3.69922 50.7305 3.89062C50.7305 4.16406 50.7031 4.46094 50.6484 4.78125C50.5977 5.09766 50.5254 5.38867 50.4316 5.6543C50.3418 5.91992 50.2441 6.11133 50.1387 6.22852C50.0488 6.27148 49.9492 6.30469 49.8398 6.32812C49.7305 6.34766 49.5957 6.35742 49.4355 6.35742C49.2949 6.35742 49.1738 6.3457 49.0723 6.32227C48.9746 6.29492 48.8809 6.25586 48.791 6.20508L48.5918 4.92773C48.3457 4.88867 48.0527 4.86914 47.7129 4.86914C47.6191 4.86914 47.5254 4.875 47.4316 4.88672C47.416 5.45312 47.3359 6.22461 47.1914 7.20117C48.0586 7.05664 48.7988 6.95117 49.4121 6.88477C49.5684 7.12305 49.6465 7.41406 49.6465 7.75781C49.6465 7.98438 49.6152 8.20312 49.5527 8.41406C49.4902 8.625 49.4219 8.77148 49.3477 8.85352C49.1836 8.88086 48.9883 8.89453 48.7617 8.89453C48.4688 8.89453 48.1641 8.86914 47.8477 8.81836C47.5352 8.76758 47.2422 8.69336 46.9688 8.5957L46.8926 9.09375C46.8457 9.37109 46.8047 9.64453 46.7695 9.91406L50.4785 9.69727C50.5371 9.75195 50.5859 9.86133 50.625 10.0254C50.668 10.1895 50.6895 10.3691 50.6895 10.5645C50.6895 10.877 50.627 11.1504 50.502 11.3848C50.377 11.6191 50.2109 11.8008 50.0039 11.9297C49.8008 12.0547 49.582 12.1172 49.3477 12.1172C49.1133 12.1172 48.793 12.0664 48.3867 11.9648C47.9844 11.8594 47.5918 11.7285 47.209 11.5723C46.8301 11.416 46.5508 11.2656 46.3711 11.1211C46.1914 11.4336 45.9941 11.6719 45.7793 11.8359C45.5684 12 45.2949 12.0938 44.959 12.1172C44.791 12.0898 44.6367 12.0039 44.4961 11.8594C44.3555 11.7148 44.2441 11.5293 44.1621 11.3027C44.0801 11.0762 44.0391 10.8301 44.0391 10.5645ZM51.3691 10.1191C51.4043 10.1309 51.4785 10.1582 51.5918 10.2012C51.709 10.2402 51.8379 10.2734 51.9785 10.3008V4.78125L51.0586 4.4707C50.9688 4.25977 50.9238 4.01758 50.9238 3.74414C50.9238 3.52148 50.959 3.32227 51.0293 3.14648C51.3105 3.07227 51.6484 3.01563 52.043 2.97656C52.4414 2.93359 52.8262 2.91211 53.1973 2.91211C53.748 2.91211 54.2344 2.95312 54.6562 3.03516C54.8516 3.41406 55.1406 4.12695 55.5234 5.17383C55.9102 6.2207 56.375 7.59375 56.918 9.29297L57.0176 9.28125C56.9043 8.31641 56.791 7.18555 56.6777 5.88867C56.5684 4.58789 56.5137 3.69727 56.5137 3.2168C56.7168 3.12305 56.9434 3.05078 57.1934 3C57.4434 2.94531 57.6738 2.91797 57.8848 2.91797C58.2285 2.91797 58.5586 2.98828 58.875 3.12891L58.3066 10.5352C58.5098 10.8281 58.6367 11.1719 58.6875 11.5664C58.5273 11.7422 58.2832 11.8789 57.9551 11.9766C57.6309 12.0703 57.2852 12.1172 56.918 12.1172C56.6328 12.1172 56.373 12.0879 56.1387 12.0293C55.9082 11.9707 55.7285 11.8809 55.5996 11.7598C55.6035 11.4668 55.6289 11.1992 55.6758 10.957C55.3828 10.3711 55.0996 9.72656 54.8262 9.02344C54.5566 8.31641 54.2129 7.37891 53.7949 6.21094L53.5371 5.49609L53.502 5.50195C53.584 6.11133 53.6719 7.00977 53.7656 8.19727C53.8594 9.38086 53.9062 10.2461 53.9062 10.793C53.9062 11.2305 53.7754 11.5605 53.5137 11.7832C53.2559 12.0059 52.8516 12.1172 52.3008 12.1172C52.1289 12.1172 51.9453 12.084 51.75 12.0176C51.5547 11.9512 51.377 11.8672 51.2168 11.7656C51.0605 11.6602 50.9512 11.5586 50.8887 11.4609C50.8887 11.1797 50.9316 10.9121 51.0176 10.6582C51.1035 10.4043 51.2207 10.2246 51.3691 10.1191ZM59.6133 7.52344C59.6133 6.63672 59.7441 5.84766 60.0059 5.15625C60.2715 4.46094 60.6855 3.91211 61.248 3.50977C61.8105 3.10742 62.5215 2.90625 63.3809 2.90625C63.9668 2.90625 64.5859 2.98242 65.2383 3.13477C65.4492 3.25977 65.6328 3.39063 65.7891 3.52734C65.9492 3.66016 66.1016 3.82227 66.2461 4.01367C66.2461 4.29102 66.209 4.66016 66.1348 5.12109C66.0605 5.57812 65.9668 6.00586 65.8535 6.4043C65.7441 6.79883 65.6387 7.05469 65.5371 7.17188C65.4355 7.22266 65.3496 7.25781 65.2793 7.27734C65.209 7.29297 65.0996 7.30078 64.9512 7.30078C64.7676 7.30078 64.5957 7.28711 64.4355 7.25977C64.2754 7.23242 64.1543 7.19531 64.0723 7.14844L63.8672 5.17383C63.5898 5.0957 63.2051 5.05664 62.7129 5.05664C62.5801 5.05664 62.4824 5.05859 62.4199 5.0625C62.252 5.60156 62.1582 6.32617 62.1387 7.23633C62.1348 7.3457 62.1328 7.51172 62.1328 7.73438C62.1328 8.25781 62.1602 8.68164 62.2148 9.00586C62.2656 9.31055 62.3203 9.53906 62.3789 9.69141C62.4375 9.84375 62.5391 9.96094 62.6836 10.043C62.832 10.125 63.0527 10.166 63.3457 10.166C63.7402 10.166 64.1035 10.1094 64.4355 9.99609C64.7715 9.87891 65.1367 9.70898 65.5312 9.48633C65.6797 9.64648 65.793 9.77734 65.8711 9.87891C65.9531 9.98047 66.0273 10.1055 66.0938 10.2539C66.1641 10.4023 66.2109 10.5723 66.2344 10.7637C66.1719 10.8926 66.0059 11.0645 65.7363 11.2793C65.4668 11.4941 65.1133 11.6875 64.6758 11.8594C64.2383 12.0312 63.748 12.1172 63.2051 12.1172C61.9355 12.1172 61.0195 11.7207 60.457 10.9277C59.8945 10.1348 59.6133 9 59.6133 7.52344ZM66.8262 7.57031C66.8262 4.46875 68.0449 2.91797 70.4824 2.91797C71.4473 2.91797 72.1992 3.11914 72.7383 3.52148C73.2812 3.91992 73.6543 4.45898 73.8574 5.13867C74.0645 5.81445 74.168 6.625 74.168 7.57031C74.168 8.96094 73.8828 10.0664 73.3125 10.8867C72.7422 11.707 71.7988 12.1172 70.4824 12.1172C69.1582 12.1172 68.2168 11.7109 67.6582 10.8984C67.1035 10.0859 66.8262 8.97656 66.8262 7.57031ZM70.7754 10.248C71.0957 10.248 71.2793 10.2305 71.3262 10.1953C71.4238 10.0234 71.498 9.72461 71.5488 9.29883C71.5996 8.86914 71.625 8.38867 71.625 7.85742C71.625 7.29883 71.5977 6.78125 71.543 6.30469C71.4922 5.82422 71.4199 5.48828 71.3262 5.29688C71.2285 5.21875 71.084 5.16016 70.8926 5.12109C70.7012 5.08203 70.4902 5.06055 70.2598 5.05664C70.127 5.05664 70.0059 5.06445 69.8965 5.08008C69.791 5.0918 69.7148 5.11133 69.668 5.13867C69.5547 5.33398 69.4707 5.61719 69.416 5.98828C69.3652 6.35547 69.3398 6.77539 69.3398 7.24805C69.3398 7.7832 69.3691 8.31641 69.4277 8.84766C69.4863 9.37891 69.5586 9.78516 69.6445 10.0664C69.6992 10.125 69.8379 10.1699 70.0605 10.2012C70.2832 10.2324 70.5215 10.248 70.7754 10.248ZM74.8008 10.6992C74.8008 10.5 74.834 10.2949 74.9004 10.084C75.2363 9.99023 75.5508 9.94531 75.8438 9.94922C75.7695 9.1875 75.707 8.35547 75.6562 7.45312C75.6055 6.54688 75.5703 5.71094 75.5508 4.94531H75.5449L74.707 4.82227C74.6562 4.67773 74.6172 4.51758 74.5898 4.3418C74.5625 4.16602 74.5488 3.99609 74.5488 3.83203C74.5488 3.70703 74.5586 3.57031 74.5781 3.42188C74.9961 3.23828 75.6523 3.10938 76.5469 3.03516C77.4414 2.95703 78.3301 2.91797 79.2129 2.91797C79.8066 2.91797 80.3105 2.96484 80.7246 3.05859C81.1387 3.15234 81.4844 3.36523 81.7617 3.69727C82.043 4.02539 82.1836 4.51758 82.1836 5.17383C82.1836 6.38867 81.8906 7.98242 81.3047 9.95508C81.207 10.2793 81.0977 10.5703 80.9766 10.8281C80.8555 11.0859 80.7012 11.3086 80.5137 11.4961C80.3535 11.6758 80.1875 11.8125 80.0156 11.9062C79.8477 11.9961 79.6445 12.041 79.4062 12.041C79.2852 12.041 79.1211 12.0215 78.9141 11.9824C78.6562 11.9316 78.4277 11.8672 78.2285 11.7891C78.0293 11.707 77.8633 11.625 77.7305 11.543C77.6016 11.4609 77.4473 11.3574 77.2676 11.2324C77.1895 11.3457 77.0586 11.4707 76.875 11.6074C76.6953 11.7441 76.4961 11.8613 76.2773 11.959C76.0586 12.0566 75.8555 12.1094 75.668 12.1172C75.3984 12.0156 75.1855 11.8359 75.0293 11.5781C74.877 11.3164 74.8008 11.0234 74.8008 10.6992ZM79.3125 9.90234C79.4219 9.36328 79.5078 8.73828 79.5703 8.02734C79.6328 7.3125 79.6855 6.54102 79.7285 5.71289L79.752 5.29688C79.7285 5.25391 79.6328 5.21094 79.4648 5.16797C79.3008 5.125 79.084 5.10352 78.8145 5.10352L78.3574 5.09766C78.1387 5.09766 77.9629 5.10742 77.8301 5.12695C77.8301 5.29102 77.832 5.42969 77.8359 5.54297C77.8477 6.22266 77.8535 6.83008 77.8535 7.36523C77.8535 7.98633 77.8477 8.86914 77.8359 10.0137C78.3477 10.0137 78.8398 9.97656 79.3125 9.90234ZM82.5703 10.5645C82.5703 10.2168 82.6426 9.87891 82.7871 9.55078C82.8535 9.55078 82.957 9.56445 83.0977 9.5918C83.2422 9.61523 83.3926 9.64648 83.5488 9.68555C83.5254 8.63086 83.5137 7.76562 83.5137 7.08984C83.5137 6.25 83.5293 5.5332 83.5605 4.93945L82.6582 4.81641C82.6074 4.67188 82.5684 4.51367 82.541 4.3418C82.5137 4.16602 82.5 3.99609 82.5 3.83203C82.5 3.70703 82.5098 3.57031 82.5293 3.42188C82.9941 3.24609 83.6055 3.11914 84.3633 3.04102C85.125 2.95898 85.8926 2.91797 86.666 2.91797C87.3965 2.91797 87.9258 2.95117 88.2539 3.01758C88.4648 3.14648 88.6484 3.27734 88.8047 3.41016C88.9648 3.53906 89.1172 3.69922 89.2617 3.89062C89.2617 4.16406 89.2344 4.46094 89.1797 4.78125C89.1289 5.09766 89.0566 5.38867 88.9629 5.6543C88.873 5.91992 88.7754 6.11133 88.6699 6.22852C88.5801 6.27148 88.4805 6.30469 88.3711 6.32812C88.2617 6.34766 88.127 6.35742 87.9668 6.35742C87.8262 6.35742 87.7051 6.3457 87.6035 6.32227C87.5059 6.29492 87.4121 6.25586 87.3223 6.20508L87.123 4.92773C86.877 4.88867 86.584 4.86914 86.2441 4.86914C86.1504 4.86914 86.0566 4.875 85.9629 4.88672C85.9473 5.45312 85.8672 6.22461 85.7227 7.20117C86.5898 7.05664 87.3301 6.95117 87.9434 6.88477C88.0996 7.12305 88.1777 7.41406 88.1777 7.75781C88.1777 7.98438 88.1465 8.20312 88.084 8.41406C88.0215 8.625 87.9531 8.77148 87.8789 8.85352C87.7148 8.88086 87.5195 8.89453 87.293 8.89453C87 8.89453 86.6953 8.86914 86.3789 8.81836C86.0664 8.76758 85.7734 8.69336 85.5 8.5957L85.4238 9.09375C85.377 9.37109 85.3359 9.64453 85.3008 9.91406L89.0098 9.69727C89.0684 9.75195 89.1172 9.86133 89.1562 10.0254C89.1992 10.1895 89.2207 10.3691 89.2207 10.5645C89.2207 10.877 89.1582 11.1504 89.0332 11.3848C88.9082 11.6191 88.7422 11.8008 88.5352 11.9297C88.332 12.0547 88.1133 12.1172 87.8789 12.1172C87.6445 12.1172 87.3242 12.0664 86.918 11.9648C86.5156 11.8594 86.123 11.7285 85.7402 11.5723C85.3613 11.416 85.082 11.2656 84.9023 11.1211C84.7227 11.4336 84.5254 11.6719 84.3105 11.8359C84.0996 12 83.8262 12.0938 83.4902 12.1172C83.3223 12.0898 83.168 12.0039 83.0273 11.8594C82.8867 11.7148 82.7754 11.5293 82.6934 11.3027C82.6113 11.0762 82.5703 10.8301 82.5703 10.5645Z" fill="#44944A"/>
</svg>
