<svg width="34" height="34" viewBox="0 0 34 34" fill="none" xmlns="http://www.w3.org/2000/svg">
<path d="M17 5.85716e-08C13.6377 5.85716e-08 10.3509 0.997032 7.55531 2.86502C4.75968 4.733 2.58074 7.38804 1.29406 10.4944C0.00736582 13.6007 -0.329291 17.0189 0.326658 20.3165C0.982606 23.6142 2.6017 26.6433 4.97919 29.0208C7.35668 31.3983 10.3858 33.0174 13.6835 33.6733C16.9811 34.3293 20.3993 33.9926 23.5056 32.7059C26.612 31.4193 29.267 29.2403 31.135 26.4447C33.003 23.6491 34 20.3623 34 17C34.0002 14.7675 33.5606 12.5568 32.7063 10.4942C31.8521 8.43154 30.5999 6.5574 29.0212 4.97877C27.4426 3.40014 25.5685 2.14793 23.5058 1.29367C21.4432 0.439406 19.2325 -0.000185264 17 5.85716e-08ZM22.4052 25.7592C22.3415 25.9179 22.2447 26.0611 22.1212 26.1793C21.9977 26.2975 21.8504 26.3879 21.6891 26.4445C21.5277 26.501 21.3562 26.5225 21.1859 26.5074C21.0157 26.4922 20.8506 26.4409 20.7018 26.3567L16.0868 22.7708L13.1249 25.5034C13.0562 25.5542 12.9758 25.5869 12.8911 25.5984C12.8064 25.61 12.7202 25.6001 12.6404 25.5696L13.2082 20.4892L13.2264 20.5036L13.238 20.4033C13.238 20.4033 21.5425 12.8426 21.8808 12.5204C22.2233 12.1991 22.1103 12.1294 22.1103 12.1294C22.1298 11.7375 21.4957 12.1294 21.4957 12.1294L10.4924 19.2083L5.91007 17.6477C5.91007 17.6477 5.20627 17.3952 5.13997 16.8402C5.07027 16.2894 5.93301 15.9902 5.93301 15.9902L24.1519 8.75243C24.1519 8.75243 25.6496 8.08515 25.6496 9.1902L22.4052 25.7592Z" fill="#34A853"/>
</svg>
