<svg width="23" height="23" viewBox="0 0 23 23" fill="none" xmlns="http://www.w3.org/2000/svg">
<path d="M11.0878 22.176C9.55711 22.176 8.11978 21.8867 6.77578 21.308C5.45044 20.748 4.27444 19.964 3.24778 18.956C2.23978 17.9293 1.44644 16.744 0.867777 15.4C0.289111 14.056 -0.000222579 12.6187 -0.000222579 11.088C-0.000222579 9.55733 0.289111 8.12 0.867777 6.776C1.44644 5.432 2.23978 4.256 3.24778 3.248C4.27444 2.22133 5.45044 1.428 6.77578 0.867997C8.11978 0.289332 9.55711 -1.43051e-06 11.0878 -1.43051e-06C12.6184 -1.43051e-06 14.0558 0.289332 15.3998 0.867997C16.7438 1.428 17.9198 2.22133 18.9278 3.248C19.9544 4.256 20.7478 5.432 21.3078 6.776C21.8864 8.12 22.1758 9.55733 22.1758 11.088C22.1758 12.6187 21.8864 14.056 21.3078 15.4C20.7478 16.744 19.9544 17.9293 18.9278 18.956C17.9198 19.964 16.7438 20.748 15.3998 21.308C14.0558 21.8867 12.6184 22.176 11.0878 22.176ZM11.0878 20.244C12.3571 20.244 13.5424 20.0107 14.6438 19.544C15.7451 19.0587 16.7158 18.396 17.5558 17.556C18.3958 16.716 19.0491 15.7453 19.5158 14.644C20.0011 13.5427 20.2438 12.3573 20.2438 11.088C20.2438 9.81867 20.0011 8.63333 19.5158 7.532C19.0491 6.43066 18.3958 5.46 17.5558 4.62C16.7158 3.78 15.7451 3.12667 14.6438 2.66C13.5424 2.17467 12.3571 1.932 11.0878 1.932C9.81844 1.932 8.63311 2.17467 7.53178 2.66C6.43044 3.12667 5.45978 3.78 4.61978 4.62C3.77978 5.46 3.11711 6.43066 2.63178 7.532C2.16511 8.63333 1.93178 9.81867 1.93178 11.088C1.93178 12.3573 2.16511 13.5427 2.63178 14.644C3.11711 15.7453 3.77978 16.716 4.61978 17.556C5.45978 18.396 6.43044 19.0587 7.53178 19.544C8.63311 20.0107 9.81844 20.244 11.0878 20.244ZM11.0878 18.9C10.0051 18.9 8.98778 18.704 8.03578 18.312C7.10244 17.9013 6.27178 17.3413 5.54378 16.632C4.83444 15.904 4.27444 15.0733 3.86378 14.14C3.47178 13.188 3.27578 12.1707 3.27578 11.088C3.27578 10.0053 3.47178 8.99733 3.86378 8.064C4.27444 7.112 4.83444 6.28133 5.54378 5.572C6.27178 4.844 7.10244 4.284 8.03578 3.892C8.98778 3.48133 10.0051 3.276 11.0878 3.276C12.1704 3.276 13.1878 3.48133 14.1398 3.892C15.0918 4.284 15.9224 4.844 16.6318 5.572C17.3598 6.28133 17.9198 7.112 18.3118 8.064C18.7224 8.99733 18.9278 10.0053 18.9278 11.088C18.9278 12.1707 18.7224 13.188 18.3118 14.14C17.9198 15.0733 17.3598 15.904 16.6318 16.632C15.9224 17.3413 15.0918 17.9013 14.1398 18.312C13.1878 18.704 12.1704 18.9 11.0878 18.9ZM11.0878 16.968C12.1891 16.968 13.1784 16.7067 14.0558 16.184C14.9518 15.6613 15.6611 14.952 16.1838 14.056C16.7251 13.16 16.9958 12.1707 16.9958 11.088C16.9958 9.98666 16.7251 8.99733 16.1838 8.12C15.6611 7.224 14.9518 6.51466 14.0558 5.992C13.1784 5.46933 12.1891 5.208 11.0878 5.208C10.0051 5.208 9.01578 5.46933 8.11978 5.992C7.22378 6.51466 6.51444 7.224 5.99178 8.12C5.46911 8.99733 5.20778 9.98666 5.20778 11.088C5.20778 12.1707 5.46911 13.16 5.99178 14.056C6.51444 14.952 7.22378 15.6613 8.11978 16.184C9.01578 16.7067 10.0051 16.968 11.0878 16.968Z" fill="#008000"/>
</svg>
