<svg width="377" height="317" viewBox="0 0 377 317" fill="none" xmlns="http://www.w3.org/2000/svg">
<path d="M133.426 316.643C131.582 316.644 129.762 316.219 128.108 315.402C126.454 314.585 125.011 313.397 123.89 311.931L2.45837 153.092C0.53161 150.565 -0.314604 147.378 0.105312 144.228C0.525227 141.079 2.17699 138.225 4.69837 136.292L57.7784 95.6995C60.3057 93.7736 63.4937 92.9287 66.6431 93.3501C69.7926 93.7716 72.6463 95.4249 74.5784 97.9475L139.442 182.748L306.554 3.8115C308.726 1.48511 311.733 0.116636 314.913 0.00711575C318.094 -0.102404 321.188 1.056 323.514 3.2275L372.314 48.8275C374.641 50.9991 376.009 54.006 376.119 57.1866C376.228 60.3671 375.07 63.461 372.898 65.7875L187.69 264.123C185.512 266.421 182.513 267.765 179.348 267.862C176.183 267.959 173.108 266.8 170.794 264.64C168.479 262.479 167.112 259.491 166.991 256.327C166.869 253.163 168.004 250.079 170.146 247.748L347.202 58.1875L315.898 28.9555L147.258 209.524C146.068 210.798 144.613 211.798 142.996 212.454C141.379 213.109 139.639 213.404 137.897 213.318C136.154 213.232 134.451 212.767 132.907 211.956C131.363 211.144 130.014 210.006 128.954 208.619L62.7944 122.027L28.7784 148.044L142.946 297.355C144.305 299.133 145.14 301.254 145.356 303.48C145.573 305.706 145.164 307.949 144.174 309.955C143.184 311.96 141.653 313.65 139.754 314.831C137.855 316.013 135.663 316.641 133.426 316.643Z" fill="#34A853"/>
</svg>
