<svg width="20" height="21" viewBox="0 0 20 21" fill="none" xmlns="http://www.w3.org/2000/svg">
<path d="M4.28378 20.16C2.97711 20.16 1.93178 19.7773 1.14778 19.012C0.382444 18.2466 -0.000222579 17.22 -0.000222579 15.932C-0.000222579 14.5693 0.401111 13.5146 1.20378 12.768C2.02511 12.0026 3.22911 11.62 4.81578 11.62H6.46778V8.53997H4.81578C3.22911 8.53997 2.02511 8.16664 1.20378 7.41997C0.401111 6.65464 -0.000222579 5.59064 -0.000222579 4.22797C-0.000222579 2.93997 0.382444 1.91331 1.14778 1.14797C1.93178 0.382639 2.97711 -2.76566e-05 4.28378 -2.76566e-05C5.32911 -2.76566e-05 6.15044 0.195972 6.74778 0.587971C7.36378 0.979972 7.79311 1.50264 8.03578 2.15597C8.29711 2.80931 8.42778 3.52797 8.42778 4.31197V6.63597H11.5078V4.31197C11.5078 3.52797 11.6291 2.80931 11.8718 2.15597C12.1331 1.50264 12.5624 0.979972 13.1598 0.587971C13.7758 0.195972 14.6064 -2.76566e-05 15.6518 -2.76566e-05C16.9584 -2.76566e-05 17.9944 0.382639 18.7598 1.14797C19.5438 1.91331 19.9358 2.93997 19.9358 4.22797C19.9358 5.59064 19.5344 6.65464 18.7318 7.41997C17.9291 8.16664 16.7251 8.53997 15.1198 8.53997H13.4678V11.62H15.1198C16.7251 11.62 17.9291 12.0026 18.7318 12.768C19.5344 13.5146 19.9358 14.5693 19.9358 15.932C19.9358 17.22 19.5438 18.2466 18.7598 19.012C17.9944 19.7773 16.9584 20.16 15.6518 20.16C14.6064 20.16 13.7758 19.964 13.1598 19.572C12.5624 19.18 12.1331 18.6573 11.8718 18.004C11.6291 17.3506 11.5078 16.632 11.5078 15.848V13.524H8.42778V15.848C8.42778 16.632 8.29711 17.3506 8.03578 18.004C7.79311 18.6573 7.36378 19.18 6.74778 19.572C6.15044 19.964 5.32911 20.16 4.28378 20.16ZM13.4678 4.25597V6.63597H15.1198C16.1091 6.63597 16.8278 6.43997 17.2758 6.04797C17.7238 5.63731 17.9478 5.03064 17.9478 4.22797C17.9478 3.40664 17.7238 2.81864 17.2758 2.46397C16.8464 2.10931 16.3051 1.93197 15.6518 1.93197C14.9238 1.93197 14.3731 2.14664 13.9998 2.57597C13.6451 2.98664 13.4678 3.54664 13.4678 4.25597ZM4.81578 6.63597H6.46778V4.25597C6.46778 3.54664 6.28111 2.98664 5.90778 2.57597C5.55311 2.14664 5.01178 1.93197 4.28378 1.93197C3.63044 1.93197 3.07978 2.10931 2.63178 2.46397C2.20244 2.81864 1.98778 3.40664 1.98778 4.22797C1.98778 5.03064 2.21178 5.63731 2.65978 6.04797C3.10778 6.43997 3.82644 6.63597 4.81578 6.63597ZM8.42778 11.62H11.5078V8.53997H8.42778V11.62ZM4.28378 18.228C5.01178 18.228 5.55311 18.0226 5.90778 17.612C6.28111 17.1826 6.46778 16.6133 6.46778 15.904V13.524H4.81578C3.82644 13.524 3.10778 13.7293 2.65978 14.14C2.21178 14.532 1.98778 15.1293 1.98778 15.932C1.98778 16.7533 2.20244 17.3413 2.63178 17.696C3.07978 18.0506 3.63044 18.228 4.28378 18.228ZM13.4678 15.904C13.4678 16.6133 13.6451 17.1826 13.9998 17.612C14.3731 18.0226 14.9238 18.228 15.6518 18.228C16.3051 18.228 16.8464 18.0506 17.2758 17.696C17.7238 17.3413 17.9478 16.7533 17.9478 15.932C17.9478 15.1293 17.7238 14.532 17.2758 14.14C16.8278 13.7293 16.1091 13.524 15.1198 13.524H13.4678V15.904Z" fill="#008000"/>
</svg>
