<svg width="22" height="22" viewBox="0 0 22 22" fill="none" xmlns="http://www.w3.org/2000/svg">
<path d="M10.1918 21.504C9.98644 20.2907 9.44511 18.984 8.56778 17.584C7.69044 16.1653 6.43978 14.8493 4.81578 13.636C3.21044 12.4227 1.60511 11.648 -0.000222579 11.312V10.136C1.58644 9.76267 3.10778 9.072 4.56378 8.064C6.03844 7.03734 7.27044 5.80534 8.25978 4.368C9.26778 2.89333 9.91178 1.43734 10.1918 2.6226e-06H11.3678C11.5358 0.933335 11.8718 1.89467 12.3758 2.884C12.8798 3.85467 13.5238 4.788 14.3078 5.684C15.1104 6.56134 16.0064 7.35467 16.9958 8.064C18.4704 9.10934 19.9731 9.8 21.5038 10.136V11.312C20.4771 11.5173 19.4131 11.9373 18.3118 12.572C17.2291 13.2067 16.2211 13.9627 15.2878 14.84C14.3544 15.6987 13.5891 16.604 12.9918 17.556C12.1144 18.956 11.5731 20.272 11.3678 21.504H10.1918Z" fill="#008000"/>
</svg>
