<svg width="34" height="34" viewBox="0 0 34 34" fill="none" xmlns="http://www.w3.org/2000/svg">
<path d="M22.224 0H11.7938C2.26663 0 0 2.26663 0 11.776V22.2063C0 31.7333 2.249 34 11.776 34H22.2063C31.7334 34 34 31.751 34 22.2239V11.7938C34 2.26663 31.751 0 22.224 0ZM27.4479 24.2604H24.9688C24.0302 24.2604 23.7469 23.4989 22.0646 21.8166C20.5948 20.4 19.975 20.2229 19.6031 20.2229C19.0896 20.2229 18.9479 20.3645 18.9479 21.0729V23.3041C18.9479 23.9063 18.7531 24.2604 17.1771 24.2604C15.6478 24.1576 14.1647 23.693 12.8501 22.9049C11.5355 22.1167 10.4269 21.0275 9.61563 19.727C7.68971 17.3299 6.34968 14.5164 5.70212 11.5104C5.70212 11.1385 5.84375 10.802 6.55212 10.802H9.03125C9.66875 10.802 9.899 11.0854 10.1469 11.7406C11.351 15.2823 13.4052 18.3635 14.2375 18.3635C14.5563 18.3635 14.6979 18.2219 14.6979 17.425V13.777C14.5916 12.1125 13.7063 11.9708 13.7063 11.3688C13.7179 11.2099 13.791 11.0619 13.91 10.9561C14.0291 10.8503 14.1846 10.795 14.3438 10.802H18.2396C18.7709 10.802 18.9479 11.0676 18.9479 11.7051V16.6281C18.9479 17.1594 19.1781 17.3364 19.3375 17.3364C19.6562 17.3364 19.9041 17.1594 20.4885 16.575C21.7443 15.0436 22.7703 13.3375 23.5344 11.5104C23.6124 11.2905 23.7602 11.1023 23.9553 10.9743C24.1503 10.8464 24.3819 10.7859 24.6146 10.802H27.0938C27.8375 10.802 27.9969 11.1739 27.8375 11.7051C26.9354 13.7253 25.8193 15.6429 24.5084 17.425C24.2428 17.8323 24.1365 18.0448 24.5084 18.5229C24.7563 18.8948 25.624 19.6208 26.2084 20.3114C27.0584 21.1593 27.7641 22.1402 28.2979 23.2156C28.5104 23.9063 28.1562 24.2604 27.4479 24.2604Z" fill="#34A853"/>
</svg>
